<?xml version="1.0" standalone="no"?>
<!DOCTYPE svg PUBLIC "-//W3C//DTD SVG 20010904//EN"
 "http://www.w3.org/TR/2001/REC-SVG-20010904/DTD/svg10.dtd">
<svg version="1.0" xmlns="http://www.w3.org/2000/svg"
 width="700.000000pt" height="700.000000pt" viewBox="0 0 700.000000 700.000000"
 preserveAspectRatio="xMidYMid meet">
<metadata>
Created by potrace 1.11, written by Peter Selinger 2001-2013
</metadata>
<g transform="translate(0.000000,700.000000) scale(0.100000,-0.100000)"
fill="#000000" stroke="none">
<path d="M3278 6996 c-1 -2 -41 -6 -88 -10 -87 -7 -105 -9 -225 -27 -116 -18
-123 -19 -192 -35 -154 -34 -203 -47 -313 -81 -261 -80 -582 -227 -815 -374
-577 -362 -1065 -919 -1327 -1512 -27 -62 -53 -121 -58 -132 -46 -95 -150
-427 -176 -560 -2 -11 -10 -54 -19 -95 -29 -147 -35 -193 -52 -370 -15 -163
-8 -592 12 -711 2 -13 6 -46 9 -74 21 -184 108 -542 165 -680 5 -11 29 -74 55
-141 54 -140 169 -371 245 -494 29 -47 58 -94 64 -105 30 -49 176 -248 236
-320 155 -188 333 -362 531 -520 92 -74 370 -265 386 -265 4 0 15 -6 23 -14
29 -25 304 -161 431 -213 165 -67 424 -150 563 -179 101 -21 216 -41 277 -49
25 -3 56 -7 69 -10 134 -26 700 -26 838 -1 17 3 104 16 148 21 324 41 869 235
1167 415 37 22 70 40 73 40 3 0 11 5 18 10 7 6 62 43 122 83 245 163 480 365
660 571 33 38 68 78 78 88 73 77 262 348 355 510 46 79 172 331 172 342 0 3
11 29 24 58 57 127 151 421 182 573 17 81 54 301 59 350 4 33 9 71 11 85 9 46
11 524 4 605 -15 153 -21 210 -25 225 -2 8 -7 35 -10 60 -15 117 -78 375 -125
520 -192 582 -521 1091 -971 1505 -348 319 -792 582 -1232 729 -190 64 -429
123 -567 141 -19 3 -46 7 -60 10 -13 2 -52 7 -86 11 -33 3 -74 8 -90 10 -32 5
-540 14 -546 10z m372 -930 c256 -14 438 -49 690 -134 626 -211 1171 -689
1463 -1285 36 -73 68 -142 72 -154 l6 -23 -343 0 -343 0 -34 58 c-100 169
-304 396 -466 518 -302 229 -641 363 -1010 399 -75 8 -303 8 -370 0 -270 -29
-570 -122 -753 -232 -30 -18 -56 -33 -59 -33 -2 0 -44 -27 -94 -61 -282 -190
-520 -463 -662 -760 -110 -231 -146 -357 -192 -664 -15 -101 -7 -364 15 -495
5 -30 12 -71 15 -90 13 -78 66 -248 111 -358 240 -584 772 -1030 1384 -1160
87 -19 134 -26 230 -38 60 -8 301 -8 378 0 497 47 983 304 1309 691 51 61 153
201 153 210 0 3 10 21 23 40 l22 35 343 0 c188 0 342 -2 342 -5 0 -12 -77
-174 -118 -250 -79 -144 -212 -339 -297 -434 -111 -126 -149 -165 -246 -252
-108 -97 -177 -151 -304 -236 -75 -51 -287 -173 -299 -173 -3 0 -37 -15 -78
-34 -78 -35 -138 -60 -203 -81 -70 -24 -209 -64 -235 -69 -14 -2 -45 -9 -70
-15 -270 -61 -661 -72 -930 -25 -14 3 -51 9 -83 15 -161 27 -381 96 -563 177
-715 316 -1264 969 -1451 1727 -15 60 -43 207 -48 250 -3 28 -8 61 -10 75 -15
88 -22 403 -11 495 2 17 6 62 10 100 30 314 149 678 319 975 33 58 70 119 81
135 201 292 336 433 651 683 73 58 267 173 401 237 179 86 513 192 658 209 27
3 77 11 110 17 59 10 334 27 366 22 8 -1 62 -4 120 -7z m234 -1317 c24 -11 45
-45 61 -97 3 -12 7 -207 7 -432 l0 -410 1047 -1 c575 0 1059 -3 1075 -5 80
-13 177 -90 218 -174 32 -65 32 -196 1 -260 -41 -82 -137 -160 -216 -174 -12
-3 -495 -5 -1073 -5 l-1052 -1 0 -409 c0 -445 -3 -474 -55 -517 -35 -29 -67
-30 -121 -4 -27 13 -212 191 -547 527 -446 448 -509 515 -529 563 -55 131 -38
270 46 375 37 46 956 964 996 995 51 39 98 49 142 29z"/>
</g>
</svg>
